<svg width="16" height="16" version="1.1" xmlns="http://www.w3.org/2000/svg">
 <title>Gnome Symbolic Icon Theme</title>
 <path d="m-.0019531-.0019531v16h7.4922c-.27218-.005479-.49023-.22451-.49023-.49805v-2c0-.277.223-.5.5-.5h1c.277 0 .5.223.5.5v2c0 .27354-.21806.49257-.49023.49805h7.4883v-7.4883c-.005477.27218-.22462.49023-.49805.49023h-2c-.27689 0-.5-.223-.5-.5v-1c0-.277.22311-.5.5-.5h2c.27343 0 .49257.21806.49805.49023v-7.4922h-16zm16 7.4922v1.0195c6.9e-5-.0034453.001953-.0063031.001953-.0097656v-1c0-.0034625-.001884-.0063203-.001953-.0097656zm-7.4883 8.5078h-1.0195c.0034453 6.9e-5.0063031.001953.0097656.001953h1c.0034625 0 .0063203-.001884.0097656-.001953zm-1.0098-15.998h1c.277 0 .5.22311.5.5v2c0 .27689-.223.5-.5.5h-1c-.277 0-.5-.22311-.5-.5v-2c0-.27689.223-.5.5-.5zm-4.4531 1.8438c.12778-2.56e-5.25562.050542.35352.14844l1.4141 1.4141c.19579.19579.19587.51116 0 .70703l-.70703.70703c-.19587.19587-.51124.19579-.70703 0l-1.4141-1.4141c-.19579-.19579-.19587-.51116 0-.70703l.70703-.70703c.097935-.097935.22573-.14841.35352-.14844zm9.9004 0c.12778 2.56e-5.25558.050503.35352.14844l.70703.70703c.19587.19587.19579.51124 0 .70703l-1.4141 1.4141c-.19579.19579-.51116.19587-.70703 0l-.70703-.70703c-.19587-.19587-.19774-.51124-.001954-.70703l1.416-1.4141c.097896-.097896.22573-.14846.35352-.14844zm-4.959 2.166c2.1973 0 4.0098 1.7832 4.0098 3.9805 0 2.1973-1.8125 4.0078-4.0098 4.0078-2.1973 0-3.9785-1.8105-3.9785-4.0078 0-2.1973 1.7812-3.9805 3.9785-3.9805zm0 1.9902c-1.1165 0-1.9883.87188-1.9883 1.9883 0 1.1164.87188 2.0195 1.9883 2.0195 1.1164 0 2.0195-.90313 2.0195-2.0195 0-1.1164-.90313-1.9883-2.0195-1.9883zm-7.4883 1h2c.277 0 .5.223.5.5v1c0 .277-.223.5-.5.5h-2c-.277 0-.5-.223-.5-.5v-1c0-.277.223-.5.5-.5zm3.2539 4.0371c.12781 0 .25558.04855.35352.14648l.70703.70703c.19587.19587.19587.51116 0 .70703l-1.4141 1.4141c-.19587.19587-.51116.19587-.70703 0l-.70703-.70703c-.19587-.19587-.19587-.51116 0-.70703l1.4141-1.4141c.097935-.097935.22571-.14648.35352-.14648zm8.4863 0c.12781 0 .25558.04855.35352.14648l1.4141 1.4141c.19587.19587.19587.51116 0 .70703l-.70703.70703c-.19587.19587-.51116.19587-.70703 0l-1.416-1.4141c-.19587-.19587-.19587-.51116 0-.70703l.70898-.70703c.097934-.097935.2257-.14648.35352-.14648z" fill="#7f7f7f" stroke-width="4.468"/>
</svg>
