<svg width="16" height="16" version="1.1" xmlns="http://www.w3.org/2000/svg">
 <title>Gnome Symbolic Icon Theme</title>
 <path d="m1 1v13.998h6.5549c-.23813-.004812-.4289-.19642-.4289-.43574v-1.7498c0-.24234.1951-.43744.43745-.43744h.87489c.24234 0 .43745.1951.43745.43744v1.7498c0 .23932-.19078.43094-.4289.43574h6.5514v-6.5514c-.0048.23813-.19652.4289-.43574.4289h-1.7498c-.24225 0-.43745-.1951-.43745-.43744v-.87489c0-.24234.1952-.43744.43745-.43744h1.7498c.23922 0 .43094.19078.43574.4289v-6.5548h-13.998zm13.998 6.5548v.89195c6.1e-5-.0030183.00175-.0055118.00175-.0085476v-.87489c0-.00303-.0017-.00553-.0017-.00855zm-6.5514 7.4434h-.89195c.00302 6.1e-5.00551.0017.00855.0017h.87489c.00303 0 .00553-.0017.00855-.0017zm-.88346-13.996h.87489c.24234 0 .43745.1952.43745.43744v1.7498c0 .24225-.1951.43744-.43745.43744h-.87489c-.24234 0-.43745-.1952-.43745-.43744v-1.7498c0-.24225.1951-.43744.43745-.43744zm-3.896 1.6131c.11179-2.24e-5.22364.044219.30929.12987l1.2372 1.2372c.17129.17129.17136.44721 0 .61857l-.61857.61857c-.17136.17136-.44728.17129-.61857 0l-1.2372-1.2372c-.17129-.17129-.17136-.44721 0-.61857l.61857-.61857c.085682-.085682.19749-.12984.30929-.12987zm8.6618 0c.11179 2.24e-5.2236.044185.30929.12987l.61857.61857c.17136.17136.1713.44728 0 .61857l-1.2372 1.2372c-.1713.17129-.44721.17136-.61857 0l-.61857-.61857c-.17136-.17136-.173-.44728-.0017-.61857l1.2388-1.2372c.08565-.085648.19749-.12989.30929-.12987zm-4.3386 1.895c1.9224 0 3.5081 1.5601 3.5081 3.4825s-1.5857 3.5064-3.5081 3.5064-3.4808-1.584-3.4808-3.5064 1.5584-3.4825 3.4808-3.4825zm0 1.7412c-.97682 0-1.7395.7628-1.7395 1.7395 0 .97673.7628 1.7668 1.7395 1.7668.97673 0 1.7668-.79014 1.7668-1.7668 0-.97673-.79014-1.7395-1.7668-1.7395zm-6.5514.87489h1.7498c.24234 0 .43745.1951.43745.43744v.87489c0 .24234-.1951.43744-.43745.43744h-1.7498c-.24234 0-.43745-.1951-.43745-.43744v-.87489c0-.24234.1951-.43744.43745-.43744zm2.8468 3.532c.11182 0 .2236.04248.30929.12815l.61857.61857c.17136.17136.17136.44721 0 .61857l-1.2372 1.2372c-.17136.17136-.44721.17136-.61857 0l-.61857-.61857c-.17136-.17136-.17136-.44721 0-.61857l1.2372-1.2372c.085682-.08568.19747-.12815.30929-.12815zm7.4246 0c.11182 0 .2236.04248.30929.12815l1.2372 1.2372c.17136.17136.17136.44721 0 .61857l-.61857.61857c-.17136.17136-.44721.17136-.61857 0l-1.2388-1.2372c-.17136-.17136-.17136-.44721 0-.61857l.62028-.61857c.08568-.08568.19746-.12815.30929-.12815z" fill="#7f7f7f" stroke-width="3.909"/>
</svg>
