<svg width="16" height="16" version="1.1" xmlns="http://www.w3.org/2000/svg">
 <title>Gnome Symbolic Icon Theme</title>
 <g transform="translate(-101 -317)">
  <path transform="translate(101,317)" d="m0 0v10.5c2.3385e-17-.277.21102-.5.47266-.5h2.0273c.26164 0 .47266.223.47266.5v1c0 .277-.21102.5-.47266.5h-2.0273c-.26164 0-.47266-.223-.47266-.5v4.5h16v-16h-16zm7.5 3h1c.277 0 .5.223.5.5v2c0 .277-.223.5-.5.5h-1c-.277 0-.5-.223-.5-.5v-2c0-.277.223-.5.5-.5zm-4.4531 1.8438c.12781 0 .25558.04855.35352.14648l1.4258 1.4258c.19587.19587.19587.51116 0 .70703l-.70703.70703c-.19587.19587-.51116.19587-.70703 0l-1.4258-1.4258c-.19587-.19587-.19587-.51116 0-.70703l.70703-.70703c.097934-.097934.22571-.14648.35352-.14648zm9.9082 0c.12781 0 .25558.04855.35352.14648l.70703.70703c.19587.19587.19587.51116 0 .70703l-1.4258 1.4258c-.19587.19587-.51116.19587-.70703 0l-.70703-.70703c-.19587-.19587-.19587-.51116 0-.70703l1.4258-1.4258c.097935-.097934.22571-.14648.35352-.14648zm-6.7051 4.1562c.05884-.0024.11903.0059906.17383.025391.2127.06916.82009.26172 1.5859.26172.76581 0 1.3732-.19252 1.5859-.26172.21115-.0714.47613.043348.54883.23633l.83594 2.2168c.10137.23354-.12695.52748-.4043.52148h-2.5664-2.5664c-.27735.0062-.50567-.28794-.4043-.52148l.83594-2.2168c.05281-.14361.20796-.25272.375-.26172zm7.2305 1h2.0156c.277 0 .5.223.5.5v1c0 .277-.223.5-.5.5h-2.0156c-.277 0-.5-.223-.5-.5v-1c0-.277.223-.5.5-.5z" fill="#7f7f7f" stroke-width="4.1425"/>
 </g>
</svg>
